<svg width="60" height="60" viewBox="0 0 60 60" fill="none" xmlns="http://www.w3.org/2000/svg">
<path fill-rule="evenodd" clip-rule="evenodd" d="M21.6667 41C22.2189 41 22.6667 40.5523 22.6667 40L22.6667 20C22.6667 19.4477 22.219 19 21.6667 19L20 19C19.4477 19 19 19.4477 19 20L19 40C19 40.5523 19.4477 41 20 41L21.6667 41ZM39.4855 40.0913C40.152 40.4912 41 40.0111 41 39.2338L41 20.7662C41 19.9889 40.152 19.5088 39.4855 19.9087L24.0958 29.1425C23.4485 29.5309 23.4485 30.4691 24.0958 30.8575L39.4855 40.0913Z" fill="#F2F2F2"/>
</svg>
