<?xml version="1.0" encoding="UTF-8"?>
<svg id="Capa_1" data-name="Capa 1" xmlns="http://www.w3.org/2000/svg" version="1.1" viewBox="0 0 1080 1080">
  <defs>
    <style>
      .cls-1 {
        fill: #fff;
        stroke-width: 0px;
      }
    </style>
  </defs>
  <path class="cls-1" d="M540,297.33c-233.04,0-421.95,108.64-421.95,242.67s188.92,242.67,421.95,242.67,421.95-108.64,421.95-242.67-188.92-242.67-421.95-242.67ZM540,325.29c81.94,0,156.15,23.85,210.01,62.44,3.26,2.33,1.64,7.47-2.37,7.47h-110.55c-10.26,0-19.76,5.4-25.01,14.2l-65.41,100.83c-3.14,4.83-10.21,4.83-13.35,0l-65.41-100.83c-5.25-8.81-14.75-14.2-25.01-14.2h-110.55c-4.01,0-5.63-5.13-2.37-7.47,53.86-38.59,128.07-62.44,210.01-62.44ZM298.48,414.3c1.48-1.47,3.85-1.58,5.48-.27l151.61,122.12c1.21,1,1.83,2.41,1.86,3.85-.04,1.43-.66,2.85-1.86,3.85l-151.61,122.12c-1.63,1.31-4,1.2-5.48-.27-35.46-35.33-56.37-78.76-56.37-125.7s20.9-90.37,56.37-125.7ZM540,754.71c-81.94,0-156.15-23.85-210.01-62.44-3.26-2.33-1.64-7.47,2.37-7.47h110.55c10.26,0,19.76-5.4,25.01-14.2l65.41-100.83c3.14-4.83,10.21-4.83,13.35,0l65.41,100.83c5.25,8.81,14.75,14.2,25.01,14.2h110.55c4.01,0,5.63,5.13,2.37,7.47-53.86,38.59-128.07,62.44-210.01,62.44ZM781.52,665.7c-1.48,1.47-3.85,1.58-5.48.27l-151.61-122.12c-1.21-1-1.83-2.41-1.86-3.85h0c.04-1.43.66-2.85,1.86-3.85l151.61-122.12c1.63-1.31,4-1.2,5.48.27,35.46,35.33,56.37,78.76,56.37,125.7s-20.9,90.37-56.37,125.7Z"/>
  <g>
    <path class="cls-1" d="M941.64,727.46c-1.49-1.37-3.22-2.42-5.17-3.17-1.96-.75-4-1.12-6.14-1.12s-4.19.37-6.14,1.12c-1.96.75-3.68,1.8-5.17,3.17-1.49,1.36-2.68,3.02-3.57,4.96-.89,1.94-1.33,4.11-1.33,6.5s.44,4.6,1.33,6.54c.89,1.94,2.08,3.6,3.57,4.98,1.49,1.38,3.21,2.43,5.17,3.16,1.96.73,4,1.1,6.14,1.1s4.19-.37,6.14-1.1c1.96-.73,3.68-1.79,5.17-3.16,1.49-1.38,2.68-3.04,3.57-4.98.89-1.94,1.33-4.12,1.33-6.54s-.44-4.56-1.33-6.5c-.89-1.94-2.08-3.6-3.57-4.96ZM941.29,743.9c-.63,1.52-1.48,2.84-2.55,3.95-1.07,1.11-2.33,1.98-3.78,2.6-1.45.62-2.99.93-4.62.93s-3.21-.31-4.66-.93c-1.45-.62-2.71-1.48-3.78-2.6-1.07-1.11-1.91-2.43-2.53-3.95-.62-1.52-.93-3.18-.93-4.98s.31-3.45.93-4.96c.62-1.51,1.46-2.81,2.53-3.91,1.07-1.1,2.33-1.96,3.78-2.58,1.45-.62,3-.93,4.66-.93s3.17.31,4.62.93c1.45.62,2.71,1.48,3.78,2.58,1.07,1.1,1.92,2.4,2.55,3.91.63,1.51.95,3.16.95,4.96s-.32,3.46-.95,4.98Z"/>
    <path class="cls-1" d="M934.81,739.64c.56-.2,1.06-.48,1.48-.84.42-.37.75-.84.99-1.41.24-.58.36-1.27.36-2.09,0-1.91-.6-3.27-1.79-4.05-1.2-.79-2.91-1.18-5.13-1.18h-6.67v17.69h3.5v-7.56h2.19l4.31,7.56h3.67l-4.73-7.72c.65-.06,1.25-.18,1.82-.38ZM927.54,737.44v-4.64h2.96c.39,0,.81.03,1.25.09.44.06.83.16,1.18.32.35.15.64.37.87.65.22.28.34.66.34,1.14,0,1.07-.32,1.75-.97,2.03-.65.28-1.48.42-2.49.42h-3.12Z"/>
  </g>
</svg>