<?xml version="1.0" encoding="UTF-8"?>
<svg id="Capa_1" data-name="Capa 1" xmlns="http://www.w3.org/2000/svg" version="1.1" viewBox="0 0 1385.2 471.73">
  <defs>
    <style>
      .cls-1 {
        fill: #000;
      }

      .cls-1, .cls-2 {
        stroke-width: 0px;
      }

      .cls-2 {
        fill: #a8ff00;
      }
    </style>
  </defs>
  <path class="cls-2" d="M555.16,190.46h-25.46c-.94,0-1.79.59-2.1,1.48l-10.9,30.34c-.25.69-.14,1.45.28,2.05.42.59,1.1.95,1.83.95h16.89c18.45,0,25.52-4.01,30.25-17.15l.56-1.54c1.32-3.69.77-7.8-1.48-11-2.25-3.2-5.94-5.11-9.85-5.11Z"/>
  <path class="cls-2" d="M1200.72,315.06c-.95-.98-2.07-1.74-3.36-2.29-1.29-.55-2.66-.82-4.11-.82s-2.86.28-4.14.82c-1.29.55-2.41,1.31-3.36,2.29-.95.98-1.7,2.13-2.25,3.47-.55,1.34-.82,2.81-.82,4.41s.27,3.07.82,4.43c.55,1.35,1.3,2.52,2.25,3.51.95.99,2.07,1.76,3.36,2.31,1.29.55,2.67.82,4.14.82s2.82-.27,4.11-.82c1.29-.55,2.41-1.32,3.36-2.31.95-.99,1.71-2.16,2.27-3.51.56-1.35.84-2.82.84-4.43s-.28-3.07-.84-4.41c-.56-1.34-1.32-2.49-2.27-3.47ZM1196.56,330.78l-3.83-6.71h-1.95v6.71h-3.11v-15.71h5.93c1.98,0,3.49.35,4.56,1.05,1.06.7,1.59,1.9,1.59,3.6,0,.73-.11,1.34-.32,1.86-.21.51-.51.93-.88,1.26-.37.32-.81.58-1.31.75-.5.18-1.04.29-1.61.34l4.2,6.86h-3.26Z"/>
  <path class="cls-2" d="M813.67,192.44c-.99-.34-2.1.06-2.64.97l-34.17,57.39c-.41.69-.42,1.55-.02,2.25.4.7,1.14,1.13,1.94,1.13h27.38c1.13,0,2.09-.85,2.22-1.97l6.79-57.39c.12-1.05-.5-2.04-1.5-2.38Z"/>
  <path class="cls-2" d="M1196.63,319.45c0-.42-.1-.76-.3-1.01-.2-.25-.46-.44-.77-.58-.31-.14-.66-.23-1.05-.28-.39-.05-.76-.08-1.11-.08h-2.63v4.13h2.78c.9,0,1.64-.12,2.21-.37.57-.25.86-.85.86-1.8Z"/>
  <path class="cls-2" d="M1281.12,104.38H161.06c-14.34,0-27.34,8-33.19,20.42l-77.46,193.93c-10.76,22.83,6.84,48.61,33.19,48.61h1120.07c14.34,0,27.34-8,33.19-20.42l77.46-193.93c10.76-22.83-6.84-48.61-33.19-48.61ZM1206.47,328.75c-.79,1.72-1.84,3.2-3.17,4.43-1.33,1.22-2.86,2.16-4.59,2.81-1.74.65-3.56.97-5.46.97s-3.72-.32-5.46-.97c-1.74-.65-3.27-1.59-4.59-2.81-1.33-1.23-2.38-2.7-3.17-4.43-.79-1.73-1.18-3.66-1.18-5.81s.4-4.05,1.18-5.78c.79-1.73,1.84-3.19,3.17-4.41,1.32-1.21,2.86-2.15,4.59-2.81,1.74-.66,3.56-.99,5.46-.99s3.72.33,5.46.99c1.74.66,3.27,1.6,4.59,2.81,1.32,1.21,2.38,2.68,3.17,4.41.79,1.73,1.18,3.65,1.18,5.78s-.39,4.09-1.18,5.81ZM1211.99,148.36l-78.83,84.32c-.54.57-.73,1.38-.52,2.13l24.9,87.95c.47,1.67.13,3.48-.91,4.86-1.04,1.38-2.7,2.2-4.43,2.2h-104.08c-1.66,0-3.28-.68-4.44-1.86-1.17-1.19-1.82-2.82-1.79-4.48l.85-48.62c.02-.98-.61-1.86-1.54-2.17-.93-.29-1.96.04-2.52.84l-37.21,53.07c-.69.99-1.62,1.81-2.69,2.36-1.07.56-2.28.85-3.48.85h-189.7c-1.71,0-3.34-.73-4.47-2.01-1.14-1.28-1.67-2.99-1.47-4.68l3.13-26.1c.08-.64-.12-1.27-.55-1.75-.42-.48-1.03-.75-1.67-.75h-48.39c-.79,0-1.51.41-1.92,1.09l-18.31,30.58c-.66,1.11-1.6,2.03-2.72,2.66-1.12.63-2.38.96-3.66.97l-174.98.6-22.42-63.33c-.32-.89-1.16-1.49-2.11-1.49h-23.37c-.94,0-1.79.59-2.1,1.48l-20.86,58.06c-.49,1.37-1.39,2.54-2.58,3.38-1.19.84-2.59,1.28-4.05,1.28h-90.69c-1.74,0-3.38-.85-4.38-2.28-1-1.42-1.25-3.25-.66-4.89l45.37-126.25c.25-.69.14-1.45-.28-2.05-.42-.59-1.1-.95-1.83-.95h-65.44c-.94,0-1.79.59-2.1,1.48l-46.81,130.26c-.49,1.38-1.39,2.55-2.58,3.39-1.19.84-2.59,1.28-4.05,1.28h-91.03c-1.74,0-3.38-.85-4.38-2.28-1-1.42-1.25-3.25-.66-4.89l45.37-126.25c.25-.69.14-1.45-.28-2.05-.42-.59-1.1-.95-1.83-.95h-82.46c-1.75,0-3.37-.87-4.35-2.32-.97-1.44-1.17-3.27-.51-4.9l16.37-40.33c.54-1.32,1.44-2.44,2.63-3.23,1.18-.79,2.56-1.22,3.98-1.22h439.96c32.41,0,49.51,4.65,57.18,15.55,5.57,7.92,5.6,19.22.1,34.53l-4.48,12.47c-10.51,29.25-32.15,47.18-59.3,49.21l-3.59.17c-1.19.06-2.13,1.04-2.13,2.23v.96c0,.45.14.89.39,1.26l26.78,39.08c.41.6,1.1.97,1.83.97.63-.04,1.42-.35,1.84-.95l107.13-152.3c.69-.99,1.62-1.8,2.69-2.35s2.27-.85,3.47-.85h151.75c1.66,0,3.28.68,4.44,1.86,1.17,1.18,1.82,2.81,1.8,4.47l-1.97,146.77c-.01.91.53,1.73,1.36,2.09.83.35,1.8.16,2.45-.47l62.81-62.47c.54-.54.77-1.31.61-2.06l-18-83.25c-.37-1.7.05-3.45,1.14-4.8s2.72-2.13,4.46-2.13h101.28c1.54,0,3.02.64,4.07,1.77,1.15,1.23,1.68,2.9,1.45,4.57l-7.16,52.24c-.15,1.06.48,2.08,1.5,2.42,1.02.35,2.13-.08,2.66-1.01l32.12-56.6c.62-1.09,1.53-1.98,2.63-2.58.98-.53,2.08-.81,3.19-.81h102.05c1.64,0,3.13.97,3.78,2.48h0c.65,1.51.35,3.26-.77,4.46Z"/>
  <path class="cls-1" d="M1212.76,143.9c-.65-1.51-2.14-2.48-3.78-2.48h-102.05c-1.11,0-2.21.28-3.19.81-1.1.6-2.01,1.49-2.63,2.58l-32.12,56.6c-.53.93-1.65,1.36-2.66,1.01-1.02-.34-1.64-1.36-1.5-2.42l7.16-52.24c.23-1.67-.3-3.33-1.45-4.57-1.05-1.12-2.53-1.77-4.07-1.77h-101.28c-1.74,0-3.36.78-4.46,2.13s-1.51,3.1-1.14,4.8l18,83.25c.16.75-.07,1.52-.61,2.06l-62.81,62.47c-.65.64-1.62.82-2.45.47-.84-.36-1.38-1.18-1.36-2.09l1.97-146.77c.02-1.66-.63-3.29-1.8-4.47-1.16-1.18-2.78-1.86-4.44-1.86h-151.75c-1.2,0-2.41.3-3.47.85s-2,1.37-2.69,2.35l-107.13,152.3c-.42.6-1.21.9-1.84.95-.73,0-1.42-.37-1.83-.97l-26.78-39.08c-.25-.37-.39-.81-.39-1.26v-.96c0-1.19.94-2.17,2.13-2.23l3.59-.17c27.16-2.03,48.79-19.97,59.3-49.21l4.48-12.47c5.5-15.31,5.47-26.61-.1-34.53-7.67-10.9-24.77-15.55-57.18-15.55H182.46c-1.43,0-2.8.43-3.98,1.22-1.18.8-2.09,1.92-2.63,3.23l-16.37,40.33c-.66,1.62-.47,3.45.51,4.9.98,1.45,2.6,2.32,4.35,2.32h82.46c.73,0,1.41.35,1.83.95.42.6.52,1.36.28,2.05l-45.37,126.25c-.59,1.64-.34,3.47.66,4.89,1,1.43,2.64,2.28,4.38,2.28h91.03c1.46,0,2.86-.44,4.05-1.28,1.2-.84,2.09-2.01,2.58-3.39l46.81-130.26c.32-.89,1.16-1.48,2.1-1.48h65.44c.73,0,1.41.35,1.83.95.42.6.52,1.36.28,2.05l-45.37,126.25c-.59,1.64-.34,3.47.66,4.89,1,1.43,2.64,2.28,4.38,2.28h90.69c1.46,0,2.86-.44,4.05-1.28,1.2-.84,2.09-2.01,2.58-3.38l20.86-58.06c.32-.89,1.16-1.48,2.1-1.48h23.37c.95,0,1.79.59,2.11,1.49l22.42,63.33,174.98-.6c1.28,0,2.54-.34,3.66-.97,1.12-.63,2.06-1.55,2.72-2.66l18.31-30.58c.4-.67,1.13-1.09,1.92-1.09h48.39c.64,0,1.25.27,1.67.75.43.48.62,1.11.55,1.75l-3.13,26.1c-.2,1.69.33,3.4,1.47,4.68,1.13,1.27,2.76,2.01,4.47,2.01h189.7c1.2,0,2.41-.3,3.48-.85,1.06-.56,2-1.37,2.69-2.36l37.21-53.07c.56-.81,1.59-1.13,2.52-.84.93.31,1.56,1.18,1.54,2.17l-.85,48.62c-.03,1.66.62,3.29,1.79,4.48,1.16,1.18,2.78,1.86,4.44,1.86h104.08c1.73,0,3.39-.83,4.43-2.2,1.04-1.38,1.39-3.2.91-4.86l-24.9-87.95c-.21-.75-.02-1.56.52-2.13l78.83-84.32c1.12-1.2,1.42-2.95.77-4.46h0ZM566.49,206.57l-.56,1.54c-4.73,13.14-11.79,17.15-30.25,17.15h-16.89c-.73,0-1.41-.35-1.83-.95-.42-.6-.52-1.36-.28-2.05l10.9-30.34c.32-.89,1.16-1.48,2.1-1.48h25.46c3.92,0,7.6,1.91,9.85,5.11,2.25,3.21,2.81,7.32,1.48,11ZM815.17,194.82l-6.79,57.39c-.13,1.12-1.09,1.97-2.22,1.97h-27.38c-.8,0-1.55-.43-1.94-1.13-.4-.7-.39-1.56.02-2.25l34.17-57.39c.54-.91,1.65-1.31,2.64-.97,1,.34,1.63,1.33,1.5,2.38Z"/>
  <path class="cls-1" d="M1203.31,312.76c-1.33-1.21-2.86-2.15-4.59-2.81-1.74-.66-3.56-.99-5.46-.99s-3.72.33-5.46.99c-1.74.66-3.27,1.6-4.59,2.81-1.33,1.21-2.38,2.68-3.17,4.41-.79,1.73-1.18,3.65-1.18,5.78s.4,4.09,1.18,5.81c.79,1.72,1.84,3.2,3.17,4.43,1.32,1.22,2.86,2.16,4.59,2.81,1.74.65,3.56.97,5.46.97s3.72-.32,5.46-.97c1.74-.65,3.27-1.59,4.59-2.81,1.32-1.23,2.38-2.7,3.17-4.43.79-1.73,1.18-3.66,1.18-5.81s-.39-4.05-1.18-5.78c-.79-1.73-1.84-3.19-3.17-4.41ZM1202.99,327.37c-.56,1.35-1.32,2.52-2.27,3.51-.95.99-2.07,1.76-3.36,2.31-1.29.55-2.66.82-4.11.82s-2.86-.27-4.14-.82c-1.29-.55-2.41-1.32-3.36-2.31-.95-.99-1.7-2.16-2.25-3.51-.55-1.35-.82-2.82-.82-4.43s.27-3.07.82-4.41c.55-1.34,1.3-2.49,2.25-3.47.95-.98,2.07-1.74,3.36-2.29,1.29-.55,2.67-.82,4.14-.82s2.82.28,4.11.82c1.29.55,2.41,1.31,3.36,2.29.95.98,1.71,2.13,2.27,3.47.56,1.34.84,2.81.84,4.41s-.28,3.07-.84,4.43Z"/>
  <path class="cls-1" d="M1197.23,323.58c.5-.17.94-.43,1.31-.75.38-.32.67-.74.88-1.26.21-.51.32-1.13.32-1.86,0-1.7-.53-2.9-1.59-3.6-1.06-.7-2.58-1.05-4.56-1.05h-5.93v15.71h3.11v-6.71h1.95l3.83,6.71h3.26l-4.2-6.86c.58-.05,1.11-.16,1.61-.34ZM1190.78,321.63v-4.13h2.63c.35,0,.72.03,1.11.08.39.05.74.14,1.05.28.31.14.57.33.77.58.2.25.3.59.3,1.01,0,.95-.29,1.55-.86,1.8-.58.25-1.31.37-2.21.37h-2.78Z"/>
</svg>