 <svg  version="1.0" xmlns="http://www.w3.org/2000/svg"  width="900.000000pt" height="633.000000pt" viewBox="0 0 900.000000 633.000000"  preserveAspectRatio="xMidYMid meet">  <g transform="translate(0.000000,633.000000) scale(0.100000,-0.100000)" fill="#c8ff00" stroke="none"> <path d="M327 6316 c-3 -8 -21 -17 -39 -21 -78 -17 -159 -78 -194 -146 -49 -97 -54 -156 -54 -607 0 -449 7 -540 52 -628 51 -102 129 -150 272 -166 55 -5 393 -8 846 -7 793 3 860 0 940 -41 71 -36 154 -122 186 -193 27 -61 28 -68 35 -307 8 -272 20 -343 70 -421 33 -52 82 -88 155 -115 43 -16 97 -19 434 -24 419 -6 427 -7 512 -67 48 -32 114 -112 136 -163 28 -65 38 -144 36 -277 -2 -145 -17 -209 -65 -279 -51 -75 -133 -136 -224 -167 -17 -6 -194 -13 -415 -16 -373 -6 -387 -7 -434 -29 -74 -34 -111 -66 -145 -126 -45 -78 -52 -123 -60 -401 -7 -243 -8 -251 -34 -306 -38 -79 -128 -171 -202 -206 l-60 -28 -820 3 c-864 4 -917 2 -1005 -41 -65 -31 -128 -93 -159 -157 -49 -97 -53 -155 -49 -620 3 -363 7 -433 21 -483 34 -114 115 -204 222 -243 47 -18 105 -19 1075 -22 692 -2 1048 1 1094 8 124 19 220 92 274 208 27 57 27 59 32 362 6 304 6 305 32 360 34 71 82 131 138 173 79 59 88 61 420 67 365 6 389 11 483 100 49 46 62 67 84 130 26 73 27 83 32 375 l6 300 31 60 c38 71 115 147 181 178 45 20 65 22 318 25 l270 3 68 -26 c91 -36 167 -106 209 -193 l33 -67 6 -295 c3 -174 10 -309 17 -328 29 -86 100 -173 172 -211 85 -44 139 -51 405 -51 288 0 324 -6 409 -69 65 -49 137 -136 156 -189 8 -25 15 -139 20 -342 l7 -305 28 -60 c38 -78 117 -155 192 -186 l58 -24 1030 -3 c606 -1 1055 1 1091 7 81 12 150 46 204 101 58 58 86 117 99 214 14 96 14 823 1 924 -16 126 -90 226 -203 277 -95 44 -177 47 -1022 43 l-790 -3 -75 36 c-103 49 -187 149 -215 254 -4 17 -7 102 -6 190 3 279 -31 439 -110 516 -18 17 -62 46 -98 63 l-66 31 -380 6 c-209 4 -393 10 -410 14 -94 25 -217 133 -262 230 -27 59 -28 63 -28 245 l0 185 30 60 c41 83 134 174 210 205 59 24 66 24 445 30 368 6 387 7 440 28 80 33 95 43 129 86 73 92 90 178 94 481 4 239 15 279 102 373 65 70 134 109 217 124 43 8 334 12 898 12 767 1 839 2 886 18 64 22 135 76 163 124 51 86 54 118 59 588 4 486 -2 568 -45 647 -49 92 -135 157 -227 174 -21 4 -40 14 -43 21 -4 12 -175 14 -1064 14 -794 0 -1058 -3 -1056 -12 1 -6 -25 -19 -59 -29 -81 -25 -144 -80 -186 -166 l-32 -66 -4 -296 c-3 -259 -6 -304 -23 -356 -34 -106 -148 -222 -254 -258 -16 -5 -165 -13 -330 -17 -340 -8 -372 -14 -451 -83 -44 -39 -91 -113 -107 -172 -5 -16 -12 -165 -16 -330 l-8 -300 -28 -59 c-40 -82 -124 -165 -207 -205 l-68 -32 -261 0 -262 -1 -63 33 c-78 39 -156 119 -192 196 -27 58 -27 59 -32 348 l-6 290 -29 75 c-38 98 -112 176 -200 210 -56 22 -78 24 -360 30 -205 5 -311 11 -335 20 -86 31 -190 134 -231 225 -20 47 -22 71 -29 360 l-6 310 -35 69 c-43 87 -102 138 -195 171 -38 13 -70 29 -72 34 -3 8 -331 11 -1062 11 -900 0 -1059 -2 -1063 -14z"/> </g> </svg> 